G04 #@! TF.FileFunction,Legend,Top*
%FSLAX46Y46*%
G04 Gerber Fmt 4.6, Leading zero omitted, Abs format (unit mm)*
G04 Created by KiCad (PCBNEW 4.0.7) date 2018 April 09, Monday 11:43:40*
%MOMM*%
%LPD*%
G01*
G04 APERTURE LIST*
%ADD10C,0.100000*%
%ADD11C,0.300000*%
%ADD12C,0.150000*%
%ADD13C,0.120000*%
G04 APERTURE END LIST*
D10*
D11*
X149480002Y-103548571D02*
X149480002Y-102048571D01*
X149837145Y-102048571D01*
X150051430Y-102120000D01*
X150194288Y-102262857D01*
X150265716Y-102405714D01*
X150337145Y-102691429D01*
X150337145Y-102905714D01*
X150265716Y-103191429D01*
X150194288Y-103334286D01*
X150051430Y-103477143D01*
X149837145Y-103548571D01*
X149480002Y-103548571D01*
X150980002Y-103548571D02*
X150980002Y-102548571D01*
X150980002Y-102834286D02*
X151051430Y-102691429D01*
X151122859Y-102620000D01*
X151265716Y-102548571D01*
X151408573Y-102548571D01*
X151908573Y-103548571D02*
X151908573Y-102548571D01*
X151908573Y-102048571D02*
X151837144Y-102120000D01*
X151908573Y-102191429D01*
X151980001Y-102120000D01*
X151908573Y-102048571D01*
X151908573Y-102191429D01*
X152480002Y-102548571D02*
X152837145Y-103548571D01*
X153194287Y-102548571D01*
X154337144Y-103477143D02*
X154194287Y-103548571D01*
X153908573Y-103548571D01*
X153765716Y-103477143D01*
X153694287Y-103334286D01*
X153694287Y-102762857D01*
X153765716Y-102620000D01*
X153908573Y-102548571D01*
X154194287Y-102548571D01*
X154337144Y-102620000D01*
X154408573Y-102762857D01*
X154408573Y-102905714D01*
X153694287Y-103048571D01*
X155051430Y-103548571D02*
X155051430Y-102548571D01*
X155051430Y-102834286D02*
X155122858Y-102691429D01*
X155194287Y-102620000D01*
X155337144Y-102548571D01*
X155480001Y-102548571D01*
X155980001Y-103405714D02*
X156051429Y-103477143D01*
X155980001Y-103548571D01*
X155908572Y-103477143D01*
X155980001Y-103405714D01*
X155980001Y-103548571D01*
X155980001Y-102620000D02*
X156051429Y-102691429D01*
X155980001Y-102762857D01*
X155908572Y-102691429D01*
X155980001Y-102620000D01*
X155980001Y-102762857D01*
X157622858Y-102048571D02*
X158480001Y-102048571D01*
X158051430Y-103548571D02*
X158051430Y-102048571D01*
X159480001Y-102762857D02*
X159694287Y-102834286D01*
X159765715Y-102905714D01*
X159837144Y-103048571D01*
X159837144Y-103262857D01*
X159765715Y-103405714D01*
X159694287Y-103477143D01*
X159551429Y-103548571D01*
X158980001Y-103548571D01*
X158980001Y-102048571D01*
X159480001Y-102048571D01*
X159622858Y-102120000D01*
X159694287Y-102191429D01*
X159765715Y-102334286D01*
X159765715Y-102477143D01*
X159694287Y-102620000D01*
X159622858Y-102691429D01*
X159480001Y-102762857D01*
X158980001Y-102762857D01*
X161122858Y-102048571D02*
X160837144Y-102048571D01*
X160694287Y-102120000D01*
X160622858Y-102191429D01*
X160480001Y-102405714D01*
X160408572Y-102691429D01*
X160408572Y-103262857D01*
X160480001Y-103405714D01*
X160551429Y-103477143D01*
X160694287Y-103548571D01*
X160980001Y-103548571D01*
X161122858Y-103477143D01*
X161194287Y-103405714D01*
X161265715Y-103262857D01*
X161265715Y-102905714D01*
X161194287Y-102762857D01*
X161122858Y-102691429D01*
X160980001Y-102620000D01*
X160694287Y-102620000D01*
X160551429Y-102691429D01*
X160480001Y-102762857D01*
X160408572Y-102905714D01*
X162551429Y-102048571D02*
X162265715Y-102048571D01*
X162122858Y-102120000D01*
X162051429Y-102191429D01*
X161908572Y-102405714D01*
X161837143Y-102691429D01*
X161837143Y-103262857D01*
X161908572Y-103405714D01*
X161980000Y-103477143D01*
X162122858Y-103548571D01*
X162408572Y-103548571D01*
X162551429Y-103477143D01*
X162622858Y-103405714D01*
X162694286Y-103262857D01*
X162694286Y-102905714D01*
X162622858Y-102762857D01*
X162551429Y-102691429D01*
X162408572Y-102620000D01*
X162122858Y-102620000D01*
X161980000Y-102691429D01*
X161908572Y-102762857D01*
X161837143Y-102905714D01*
X164122857Y-103548571D02*
X163265714Y-103548571D01*
X163694286Y-103548571D02*
X163694286Y-102048571D01*
X163551429Y-102262857D01*
X163408571Y-102405714D01*
X163265714Y-102477143D01*
X164694285Y-102191429D02*
X164765714Y-102120000D01*
X164908571Y-102048571D01*
X165265714Y-102048571D01*
X165408571Y-102120000D01*
X165480000Y-102191429D01*
X165551428Y-102334286D01*
X165551428Y-102477143D01*
X165480000Y-102691429D01*
X164622857Y-103548571D01*
X165551428Y-103548571D01*
X94786429Y-120693571D02*
X94786429Y-119193571D01*
X95286429Y-120265000D01*
X95786429Y-119193571D01*
X95786429Y-120693571D01*
X96500715Y-120693571D02*
X96500715Y-119693571D01*
X96500715Y-119193571D02*
X96429286Y-119265000D01*
X96500715Y-119336429D01*
X96572143Y-119265000D01*
X96500715Y-119193571D01*
X96500715Y-119336429D01*
X97215001Y-119693571D02*
X97215001Y-120693571D01*
X97215001Y-119836429D02*
X97286429Y-119765000D01*
X97429287Y-119693571D01*
X97643572Y-119693571D01*
X97786429Y-119765000D01*
X97857858Y-119907857D01*
X97857858Y-120693571D01*
X98572144Y-120693571D02*
X98572144Y-119693571D01*
X98572144Y-119193571D02*
X98500715Y-119265000D01*
X98572144Y-119336429D01*
X98643572Y-119265000D01*
X98572144Y-119193571D01*
X98572144Y-119336429D01*
X98929287Y-120836429D02*
X100072144Y-120836429D01*
X101286430Y-120550714D02*
X101215001Y-120622143D01*
X101000715Y-120693571D01*
X100857858Y-120693571D01*
X100643573Y-120622143D01*
X100500715Y-120479286D01*
X100429287Y-120336429D01*
X100357858Y-120050714D01*
X100357858Y-119836429D01*
X100429287Y-119550714D01*
X100500715Y-119407857D01*
X100643573Y-119265000D01*
X100857858Y-119193571D01*
X101000715Y-119193571D01*
X101215001Y-119265000D01*
X101286430Y-119336429D01*
X101929287Y-119907857D02*
X102429287Y-119907857D01*
X102643573Y-120693571D02*
X101929287Y-120693571D01*
X101929287Y-119193571D01*
X102643573Y-119193571D01*
X104215001Y-119193571D02*
X104715001Y-120693571D01*
X105215001Y-119193571D01*
X105715001Y-120550714D02*
X105786429Y-120622143D01*
X105715001Y-120693571D01*
X105643572Y-120622143D01*
X105715001Y-120550714D01*
X105715001Y-120693571D01*
X107215001Y-120693571D02*
X106357858Y-120693571D01*
X106786430Y-120693571D02*
X106786430Y-119193571D01*
X106643573Y-119407857D01*
X106500715Y-119550714D01*
X106357858Y-119622143D01*
X170858571Y-125026428D02*
X169858571Y-125026428D01*
X169358571Y-125026428D02*
X169430000Y-125097857D01*
X169501429Y-125026428D01*
X169430000Y-124955000D01*
X169358571Y-125026428D01*
X169501429Y-125026428D01*
X169858571Y-124312142D02*
X170858571Y-124312142D01*
X170001429Y-124312142D02*
X169930000Y-124240714D01*
X169858571Y-124097856D01*
X169858571Y-123883571D01*
X169930000Y-123740714D01*
X170072857Y-123669285D01*
X170858571Y-123669285D01*
X169858571Y-123169285D02*
X169858571Y-122597856D01*
X169358571Y-122954999D02*
X170644286Y-122954999D01*
X170787143Y-122883571D01*
X170858571Y-122740713D01*
X170858571Y-122597856D01*
X170787143Y-121526428D02*
X170858571Y-121669285D01*
X170858571Y-121954999D01*
X170787143Y-122097856D01*
X170644286Y-122169285D01*
X170072857Y-122169285D01*
X169930000Y-122097856D01*
X169858571Y-121954999D01*
X169858571Y-121669285D01*
X169930000Y-121526428D01*
X170072857Y-121454999D01*
X170215714Y-121454999D01*
X170358571Y-122169285D01*
X170858571Y-120812142D02*
X169858571Y-120812142D01*
X170144286Y-120812142D02*
X170001429Y-120740714D01*
X169930000Y-120669285D01*
X169858571Y-120526428D01*
X169858571Y-120383571D01*
X170787143Y-119955000D02*
X170858571Y-119812143D01*
X170858571Y-119526428D01*
X170787143Y-119383571D01*
X170644286Y-119312143D01*
X170572857Y-119312143D01*
X170430000Y-119383571D01*
X170358571Y-119526428D01*
X170358571Y-119740714D01*
X170287143Y-119883571D01*
X170144286Y-119955000D01*
X170072857Y-119955000D01*
X169930000Y-119883571D01*
X169858571Y-119740714D01*
X169858571Y-119526428D01*
X169930000Y-119383571D01*
X169858571Y-118669285D02*
X171358571Y-118669285D01*
X169930000Y-118669285D02*
X169858571Y-118526428D01*
X169858571Y-118240714D01*
X169930000Y-118097857D01*
X170001429Y-118026428D01*
X170144286Y-117954999D01*
X170572857Y-117954999D01*
X170715714Y-118026428D01*
X170787143Y-118097857D01*
X170858571Y-118240714D01*
X170858571Y-118526428D01*
X170787143Y-118669285D01*
X170787143Y-116740714D02*
X170858571Y-116883571D01*
X170858571Y-117169285D01*
X170787143Y-117312142D01*
X170644286Y-117383571D01*
X170072857Y-117383571D01*
X169930000Y-117312142D01*
X169858571Y-117169285D01*
X169858571Y-116883571D01*
X169930000Y-116740714D01*
X170072857Y-116669285D01*
X170215714Y-116669285D01*
X170358571Y-117383571D01*
X170787143Y-115383571D02*
X170858571Y-115526428D01*
X170858571Y-115812142D01*
X170787143Y-115955000D01*
X170715714Y-116026428D01*
X170572857Y-116097857D01*
X170144286Y-116097857D01*
X170001429Y-116026428D01*
X169930000Y-115955000D01*
X169858571Y-115812142D01*
X169858571Y-115526428D01*
X169930000Y-115383571D01*
X170858571Y-114740714D02*
X169858571Y-114740714D01*
X169358571Y-114740714D02*
X169430000Y-114812143D01*
X169501429Y-114740714D01*
X169430000Y-114669286D01*
X169358571Y-114740714D01*
X169501429Y-114740714D01*
X169858571Y-114240714D02*
X169858571Y-113669285D01*
X170858571Y-114026428D02*
X169572857Y-114026428D01*
X169430000Y-113955000D01*
X169358571Y-113812142D01*
X169358571Y-113669285D01*
X170858571Y-113169285D02*
X169858571Y-113169285D01*
X169358571Y-113169285D02*
X169430000Y-113240714D01*
X169501429Y-113169285D01*
X169430000Y-113097857D01*
X169358571Y-113169285D01*
X169501429Y-113169285D01*
X170787143Y-111812142D02*
X170858571Y-111954999D01*
X170858571Y-112240713D01*
X170787143Y-112383571D01*
X170715714Y-112454999D01*
X170572857Y-112526428D01*
X170144286Y-112526428D01*
X170001429Y-112454999D01*
X169930000Y-112383571D01*
X169858571Y-112240713D01*
X169858571Y-111954999D01*
X169930000Y-111812142D01*
X170787143Y-111240714D02*
X170858571Y-111097857D01*
X170858571Y-110812142D01*
X170787143Y-110669285D01*
X170644286Y-110597857D01*
X170572857Y-110597857D01*
X170430000Y-110669285D01*
X170358571Y-110812142D01*
X170358571Y-111026428D01*
X170287143Y-111169285D01*
X170144286Y-111240714D01*
X170072857Y-111240714D01*
X169930000Y-111169285D01*
X169858571Y-111026428D01*
X169858571Y-110812142D01*
X169930000Y-110669285D01*
X170715714Y-109954999D02*
X170787143Y-109883571D01*
X170858571Y-109954999D01*
X170787143Y-110026428D01*
X170715714Y-109954999D01*
X170858571Y-109954999D01*
X170787143Y-108597856D02*
X170858571Y-108740713D01*
X170858571Y-109026427D01*
X170787143Y-109169285D01*
X170715714Y-109240713D01*
X170572857Y-109312142D01*
X170144286Y-109312142D01*
X170001429Y-109240713D01*
X169930000Y-109169285D01*
X169858571Y-109026427D01*
X169858571Y-108740713D01*
X169930000Y-108597856D01*
X170787143Y-107312142D02*
X170858571Y-107454999D01*
X170858571Y-107740713D01*
X170787143Y-107883571D01*
X170715714Y-107954999D01*
X170572857Y-108026428D01*
X170144286Y-108026428D01*
X170001429Y-107954999D01*
X169930000Y-107883571D01*
X169858571Y-107740713D01*
X169858571Y-107454999D01*
X169930000Y-107312142D01*
X150145714Y-134587143D02*
X150360000Y-134658571D01*
X150717143Y-134658571D01*
X150860000Y-134587143D01*
X150931429Y-134515714D01*
X151002857Y-134372857D01*
X151002857Y-134230000D01*
X150931429Y-134087143D01*
X150860000Y-134015714D01*
X150717143Y-133944286D01*
X150431429Y-133872857D01*
X150288571Y-133801429D01*
X150217143Y-133730000D01*
X150145714Y-133587143D01*
X150145714Y-133444286D01*
X150217143Y-133301429D01*
X150288571Y-133230000D01*
X150431429Y-133158571D01*
X150788571Y-133158571D01*
X151002857Y-133230000D01*
X151645714Y-134658571D02*
X151645714Y-133158571D01*
X152217142Y-133158571D01*
X152360000Y-133230000D01*
X152431428Y-133301429D01*
X152502857Y-133444286D01*
X152502857Y-133658571D01*
X152431428Y-133801429D01*
X152360000Y-133872857D01*
X152217142Y-133944286D01*
X151645714Y-133944286D01*
X153145714Y-133872857D02*
X153645714Y-133872857D01*
X153860000Y-134658571D02*
X153145714Y-134658571D01*
X153145714Y-133158571D01*
X153860000Y-133158571D01*
X155360000Y-134515714D02*
X155288571Y-134587143D01*
X155074285Y-134658571D01*
X154931428Y-134658571D01*
X154717143Y-134587143D01*
X154574285Y-134444286D01*
X154502857Y-134301429D01*
X154431428Y-134015714D01*
X154431428Y-133801429D01*
X154502857Y-133515714D01*
X154574285Y-133372857D01*
X154717143Y-133230000D01*
X154931428Y-133158571D01*
X155074285Y-133158571D01*
X155288571Y-133230000D01*
X155360000Y-133301429D01*
X156002857Y-133158571D02*
X156002857Y-134372857D01*
X156074285Y-134515714D01*
X156145714Y-134587143D01*
X156288571Y-134658571D01*
X156574285Y-134658571D01*
X156717143Y-134587143D01*
X156788571Y-134515714D01*
X156860000Y-134372857D01*
X156860000Y-133158571D01*
X158288572Y-134658571D02*
X157574286Y-134658571D01*
X157574286Y-133158571D01*
X158717143Y-134230000D02*
X159431429Y-134230000D01*
X158574286Y-134658571D02*
X159074286Y-133158571D01*
X159574286Y-134658571D01*
X159860000Y-133158571D02*
X160717143Y-133158571D01*
X160288572Y-134658571D02*
X160288572Y-133158571D01*
X161217143Y-134658571D02*
X161217143Y-133158571D01*
X161717143Y-133158571D02*
X162217143Y-134658571D01*
X162717143Y-133158571D01*
X163217143Y-133872857D02*
X163717143Y-133872857D01*
X163931429Y-134658571D02*
X163217143Y-134658571D01*
X163217143Y-133158571D01*
X163931429Y-133158571D01*
X165717143Y-134087143D02*
X166860000Y-134087143D01*
X167574286Y-134087143D02*
X168717143Y-134087143D01*
X151074286Y-137065714D02*
X151002857Y-137137143D01*
X150788571Y-137208571D01*
X150645714Y-137208571D01*
X150431429Y-137137143D01*
X150288571Y-136994286D01*
X150217143Y-136851429D01*
X150145714Y-136565714D01*
X150145714Y-136351429D01*
X150217143Y-136065714D01*
X150288571Y-135922857D01*
X150431429Y-135780000D01*
X150645714Y-135708571D01*
X150788571Y-135708571D01*
X151002857Y-135780000D01*
X151074286Y-135851429D01*
X152002857Y-135708571D02*
X152288571Y-135708571D01*
X152431429Y-135780000D01*
X152574286Y-135922857D01*
X152645714Y-136208571D01*
X152645714Y-136708571D01*
X152574286Y-136994286D01*
X152431429Y-137137143D01*
X152288571Y-137208571D01*
X152002857Y-137208571D01*
X151860000Y-137137143D01*
X151717143Y-136994286D01*
X151645714Y-136708571D01*
X151645714Y-136208571D01*
X151717143Y-135922857D01*
X151860000Y-135780000D01*
X152002857Y-135708571D01*
X153288572Y-137208571D02*
X153288572Y-135708571D01*
X153788572Y-136780000D01*
X154288572Y-135708571D01*
X154288572Y-137208571D01*
X155002858Y-137208571D02*
X155002858Y-135708571D01*
X155502858Y-136780000D01*
X156002858Y-135708571D01*
X156002858Y-137208571D01*
X156717144Y-135708571D02*
X156717144Y-136922857D01*
X156788572Y-137065714D01*
X156860001Y-137137143D01*
X157002858Y-137208571D01*
X157288572Y-137208571D01*
X157431430Y-137137143D01*
X157502858Y-137065714D01*
X157574287Y-136922857D01*
X157574287Y-135708571D01*
X158288573Y-137208571D02*
X158288573Y-135708571D01*
X159145716Y-137208571D01*
X159145716Y-135708571D01*
X159860002Y-137208571D02*
X159860002Y-135708571D01*
X161431431Y-137065714D02*
X161360002Y-137137143D01*
X161145716Y-137208571D01*
X161002859Y-137208571D01*
X160788574Y-137137143D01*
X160645716Y-136994286D01*
X160574288Y-136851429D01*
X160502859Y-136565714D01*
X160502859Y-136351429D01*
X160574288Y-136065714D01*
X160645716Y-135922857D01*
X160788574Y-135780000D01*
X161002859Y-135708571D01*
X161145716Y-135708571D01*
X161360002Y-135780000D01*
X161431431Y-135851429D01*
X162002859Y-136780000D02*
X162717145Y-136780000D01*
X161860002Y-137208571D02*
X162360002Y-135708571D01*
X162860002Y-137208571D01*
X163145716Y-135708571D02*
X164002859Y-135708571D01*
X163574288Y-137208571D02*
X163574288Y-135708571D01*
X164502859Y-137208571D02*
X164502859Y-135708571D01*
X165502859Y-135708571D02*
X165788573Y-135708571D01*
X165931431Y-135780000D01*
X166074288Y-135922857D01*
X166145716Y-136208571D01*
X166145716Y-136708571D01*
X166074288Y-136994286D01*
X165931431Y-137137143D01*
X165788573Y-137208571D01*
X165502859Y-137208571D01*
X165360002Y-137137143D01*
X165217145Y-136994286D01*
X165145716Y-136708571D01*
X165145716Y-136208571D01*
X165217145Y-135922857D01*
X165360002Y-135780000D01*
X165502859Y-135708571D01*
X166788574Y-137208571D02*
X166788574Y-135708571D01*
X167645717Y-137208571D01*
X167645717Y-135708571D01*
X168288574Y-137137143D02*
X168502860Y-137208571D01*
X168860003Y-137208571D01*
X169002860Y-137137143D01*
X169074289Y-137065714D01*
X169145717Y-136922857D01*
X169145717Y-136780000D01*
X169074289Y-136637143D01*
X169002860Y-136565714D01*
X168860003Y-136494286D01*
X168574289Y-136422857D01*
X168431431Y-136351429D01*
X168360003Y-136280000D01*
X168288574Y-136137143D01*
X168288574Y-135994286D01*
X168360003Y-135851429D01*
X168431431Y-135780000D01*
X168574289Y-135708571D01*
X168931431Y-135708571D01*
X169145717Y-135780000D01*
D12*
X150215000Y-115600000D02*
X151765000Y-115600000D01*
X150215000Y-114300000D02*
X150215000Y-115600000D01*
X151638000Y-110109000D02*
X151638000Y-104267000D01*
X151638000Y-104267000D02*
X151892000Y-104267000D01*
X151892000Y-104267000D02*
X151892000Y-110109000D01*
X151892000Y-110109000D02*
X151765000Y-110109000D01*
X151765000Y-110109000D02*
X151765000Y-104267000D01*
X151511000Y-112776000D02*
X151511000Y-113157000D01*
X152019000Y-112776000D02*
X152019000Y-113157000D01*
X154051000Y-112776000D02*
X154051000Y-113157000D01*
X154559000Y-112776000D02*
X154559000Y-113157000D01*
X156591000Y-112776000D02*
X156591000Y-113157000D01*
X157099000Y-112776000D02*
X157099000Y-113157000D01*
X164719000Y-112776000D02*
X164719000Y-113157000D01*
X164211000Y-112776000D02*
X164211000Y-113157000D01*
X162179000Y-112776000D02*
X162179000Y-113157000D01*
X161671000Y-112776000D02*
X161671000Y-113157000D01*
X159639000Y-112776000D02*
X159639000Y-113157000D01*
X159131000Y-112776000D02*
X159131000Y-113157000D01*
X150495000Y-112776000D02*
X150495000Y-110236000D01*
X153035000Y-112776000D02*
X153035000Y-110236000D01*
X153035000Y-112776000D02*
X155575000Y-112776000D01*
X155575000Y-112776000D02*
X155575000Y-110236000D01*
X154051000Y-110236000D02*
X154051000Y-104140000D01*
X154051000Y-104140000D02*
X154559000Y-104140000D01*
X154559000Y-104140000D02*
X154559000Y-110236000D01*
X155575000Y-110236000D02*
X153035000Y-110236000D01*
X153035000Y-110236000D02*
X150495000Y-110236000D01*
X152019000Y-104140000D02*
X152019000Y-110236000D01*
X151511000Y-104140000D02*
X152019000Y-104140000D01*
X151511000Y-110236000D02*
X151511000Y-104140000D01*
X153035000Y-112776000D02*
X153035000Y-110236000D01*
X150495000Y-112776000D02*
X153035000Y-112776000D01*
X160655000Y-112776000D02*
X160655000Y-110236000D01*
X160655000Y-112776000D02*
X163195000Y-112776000D01*
X163195000Y-112776000D02*
X163195000Y-110236000D01*
X161671000Y-110236000D02*
X161671000Y-104140000D01*
X161671000Y-104140000D02*
X162179000Y-104140000D01*
X162179000Y-104140000D02*
X162179000Y-110236000D01*
X163195000Y-110236000D02*
X160655000Y-110236000D01*
X165735000Y-110236000D02*
X163195000Y-110236000D01*
X164719000Y-104140000D02*
X164719000Y-110236000D01*
X164211000Y-104140000D02*
X164719000Y-104140000D01*
X164211000Y-110236000D02*
X164211000Y-104140000D01*
X165735000Y-112776000D02*
X165735000Y-110236000D01*
X163195000Y-112776000D02*
X165735000Y-112776000D01*
X163195000Y-112776000D02*
X163195000Y-110236000D01*
X158115000Y-112776000D02*
X158115000Y-110236000D01*
X158115000Y-112776000D02*
X160655000Y-112776000D01*
X160655000Y-112776000D02*
X160655000Y-110236000D01*
X159131000Y-110236000D02*
X159131000Y-104140000D01*
X159131000Y-104140000D02*
X159639000Y-104140000D01*
X159639000Y-104140000D02*
X159639000Y-110236000D01*
X160655000Y-110236000D02*
X158115000Y-110236000D01*
X158115000Y-110236000D02*
X155575000Y-110236000D01*
X157099000Y-104140000D02*
X157099000Y-110236000D01*
X156591000Y-104140000D02*
X157099000Y-104140000D01*
X156591000Y-110236000D02*
X156591000Y-104140000D01*
X158115000Y-112776000D02*
X158115000Y-110236000D01*
X155575000Y-112776000D02*
X158115000Y-112776000D01*
X155575000Y-112776000D02*
X155575000Y-110236000D01*
X145135000Y-100360000D02*
X146685000Y-100360000D01*
X145135000Y-99060000D02*
X145135000Y-100360000D01*
X146558000Y-94869000D02*
X146558000Y-89027000D01*
X146558000Y-89027000D02*
X146812000Y-89027000D01*
X146812000Y-89027000D02*
X146812000Y-94869000D01*
X146812000Y-94869000D02*
X146685000Y-94869000D01*
X146685000Y-94869000D02*
X146685000Y-89027000D01*
X164211000Y-97536000D02*
X164211000Y-97917000D01*
X164719000Y-97536000D02*
X164719000Y-97917000D01*
X166751000Y-97536000D02*
X166751000Y-97917000D01*
X167259000Y-97536000D02*
X167259000Y-97917000D01*
X169291000Y-97536000D02*
X169291000Y-97917000D01*
X169799000Y-97536000D02*
X169799000Y-97917000D01*
X146431000Y-97536000D02*
X146431000Y-97917000D01*
X146939000Y-97536000D02*
X146939000Y-97917000D01*
X148971000Y-97536000D02*
X148971000Y-97917000D01*
X149479000Y-97536000D02*
X149479000Y-97917000D01*
X151511000Y-97536000D02*
X151511000Y-97917000D01*
X152019000Y-97536000D02*
X152019000Y-97917000D01*
X162179000Y-97536000D02*
X162179000Y-97917000D01*
X161671000Y-97536000D02*
X161671000Y-97917000D01*
X159639000Y-97536000D02*
X159639000Y-97917000D01*
X159131000Y-97536000D02*
X159131000Y-97917000D01*
X157099000Y-97536000D02*
X157099000Y-97917000D01*
X156591000Y-97536000D02*
X156591000Y-97917000D01*
X154559000Y-97536000D02*
X154559000Y-97917000D01*
X154051000Y-97536000D02*
X154051000Y-97917000D01*
X160655000Y-97536000D02*
X160655000Y-94996000D01*
X160655000Y-97536000D02*
X163195000Y-97536000D01*
X163195000Y-97536000D02*
X163195000Y-94996000D01*
X161671000Y-94996000D02*
X161671000Y-88900000D01*
X161671000Y-88900000D02*
X162179000Y-88900000D01*
X162179000Y-88900000D02*
X162179000Y-94996000D01*
X163195000Y-94996000D02*
X160655000Y-94996000D01*
X165735000Y-94996000D02*
X163195000Y-94996000D01*
X164719000Y-88900000D02*
X164719000Y-94996000D01*
X164211000Y-88900000D02*
X164719000Y-88900000D01*
X164211000Y-94996000D02*
X164211000Y-88900000D01*
X165735000Y-97536000D02*
X165735000Y-94996000D01*
X163195000Y-97536000D02*
X165735000Y-97536000D01*
X163195000Y-97536000D02*
X163195000Y-94996000D01*
X168275000Y-97536000D02*
X168275000Y-94996000D01*
X168275000Y-97536000D02*
X170815000Y-97536000D01*
X169291000Y-94996000D02*
X169291000Y-88900000D01*
X169291000Y-88900000D02*
X169799000Y-88900000D01*
X169799000Y-88900000D02*
X169799000Y-94996000D01*
X170815000Y-94996000D02*
X168275000Y-94996000D01*
X168275000Y-94996000D02*
X165735000Y-94996000D01*
X167259000Y-88900000D02*
X167259000Y-94996000D01*
X166751000Y-88900000D02*
X167259000Y-88900000D01*
X166751000Y-94996000D02*
X166751000Y-88900000D01*
X168275000Y-97536000D02*
X168275000Y-94996000D01*
X165735000Y-97536000D02*
X168275000Y-97536000D01*
X165735000Y-97536000D02*
X165735000Y-94996000D01*
X170815000Y-97536000D02*
X170815000Y-94996000D01*
X145415000Y-97536000D02*
X145415000Y-94996000D01*
X147955000Y-97536000D02*
X147955000Y-94996000D01*
X147955000Y-97536000D02*
X150495000Y-97536000D01*
X150495000Y-97536000D02*
X150495000Y-94996000D01*
X148971000Y-94996000D02*
X148971000Y-88900000D01*
X148971000Y-88900000D02*
X149479000Y-88900000D01*
X149479000Y-88900000D02*
X149479000Y-94996000D01*
X150495000Y-94996000D02*
X147955000Y-94996000D01*
X147955000Y-94996000D02*
X145415000Y-94996000D01*
X146939000Y-88900000D02*
X146939000Y-94996000D01*
X146431000Y-88900000D02*
X146939000Y-88900000D01*
X146431000Y-94996000D02*
X146431000Y-88900000D01*
X147955000Y-97536000D02*
X147955000Y-94996000D01*
X145415000Y-97536000D02*
X147955000Y-97536000D01*
X155575000Y-97536000D02*
X155575000Y-94996000D01*
X155575000Y-97536000D02*
X158115000Y-97536000D01*
X158115000Y-97536000D02*
X158115000Y-94996000D01*
X156591000Y-94996000D02*
X156591000Y-88900000D01*
X156591000Y-88900000D02*
X157099000Y-88900000D01*
X157099000Y-88900000D02*
X157099000Y-94996000D01*
X158115000Y-94996000D02*
X155575000Y-94996000D01*
X160655000Y-94996000D02*
X158115000Y-94996000D01*
X159639000Y-88900000D02*
X159639000Y-94996000D01*
X159131000Y-88900000D02*
X159639000Y-88900000D01*
X159131000Y-94996000D02*
X159131000Y-88900000D01*
X160655000Y-97536000D02*
X160655000Y-94996000D01*
X158115000Y-97536000D02*
X160655000Y-97536000D01*
X158115000Y-97536000D02*
X158115000Y-94996000D01*
X153035000Y-97536000D02*
X153035000Y-94996000D01*
X153035000Y-97536000D02*
X155575000Y-97536000D01*
X155575000Y-97536000D02*
X155575000Y-94996000D01*
X154051000Y-94996000D02*
X154051000Y-88900000D01*
X154051000Y-88900000D02*
X154559000Y-88900000D01*
X154559000Y-88900000D02*
X154559000Y-94996000D01*
X155575000Y-94996000D02*
X153035000Y-94996000D01*
X153035000Y-94996000D02*
X150495000Y-94996000D01*
X152019000Y-88900000D02*
X152019000Y-94996000D01*
X151511000Y-88900000D02*
X152019000Y-88900000D01*
X151511000Y-94996000D02*
X151511000Y-88900000D01*
X153035000Y-97536000D02*
X153035000Y-94996000D01*
X150495000Y-97536000D02*
X153035000Y-97536000D01*
X150495000Y-97536000D02*
X150495000Y-94996000D01*
X134675112Y-115189904D02*
G75*
G03X134660000Y-112165000I2484888J1524904D01*
G01*
X134660000Y-115165000D02*
X134660000Y-112165000D01*
X139677936Y-113665000D02*
G75*
G03X139677936Y-113665000I-2517936J0D01*
G01*
X134675112Y-102489904D02*
G75*
G03X134660000Y-99465000I2484888J1524904D01*
G01*
X134660000Y-102465000D02*
X134660000Y-99465000D01*
X139677936Y-100965000D02*
G75*
G03X139677936Y-100965000I-2517936J0D01*
G01*
D13*
X126410000Y-119790000D02*
X126410000Y-121510000D01*
X126410000Y-121510000D02*
X130130000Y-121510000D01*
X130130000Y-121510000D02*
X130130000Y-119790000D01*
X130130000Y-119790000D02*
X126410000Y-119790000D01*
X125340000Y-120650000D02*
X126410000Y-120650000D01*
X131200000Y-120650000D02*
X130130000Y-120650000D01*
X113710000Y-119790000D02*
X113710000Y-121510000D01*
X113710000Y-121510000D02*
X117430000Y-121510000D01*
X117430000Y-121510000D02*
X117430000Y-119790000D01*
X117430000Y-119790000D02*
X113710000Y-119790000D01*
X112640000Y-120650000D02*
X113710000Y-120650000D01*
X118500000Y-120650000D02*
X117430000Y-120650000D01*
X140925000Y-121510000D02*
X140925000Y-119790000D01*
X140925000Y-119790000D02*
X137205000Y-119790000D01*
X137205000Y-119790000D02*
X137205000Y-121510000D01*
X137205000Y-121510000D02*
X140925000Y-121510000D01*
X141995000Y-120650000D02*
X140925000Y-120650000D01*
X136135000Y-120650000D02*
X137205000Y-120650000D01*
X140290000Y-108175000D02*
X140290000Y-106455000D01*
X140290000Y-106455000D02*
X136570000Y-106455000D01*
X136570000Y-106455000D02*
X136570000Y-108175000D01*
X136570000Y-108175000D02*
X140290000Y-108175000D01*
X141360000Y-107315000D02*
X140290000Y-107315000D01*
X135500000Y-107315000D02*
X136570000Y-107315000D01*
X103687432Y-133131982D02*
G75*
G02X98163000Y-133133000I-2762432J1171982D01*
G01*
X98627247Y-130031705D02*
G75*
G02X103223000Y-130032000I2297753J-1928295D01*
G01*
X105886000Y-125400000D02*
X105886000Y-129266000D01*
X105886000Y-133655000D02*
X105886000Y-137520000D01*
X95965000Y-125400000D02*
X95965000Y-129266000D01*
X95965000Y-133655000D02*
X95965000Y-137520000D01*
X105886000Y-125400000D02*
X104250000Y-125400000D01*
X102600000Y-125400000D02*
X101750000Y-125400000D01*
X100100000Y-125400000D02*
X99250000Y-125400000D01*
X97600000Y-125400000D02*
X95965000Y-125400000D01*
X105886000Y-137520000D02*
X95965000Y-137520000D01*
D12*
X136895000Y-130770000D02*
G75*
G03X136895000Y-130770000I-6125000J0D01*
G01*
X133370960Y-136319620D02*
X128169040Y-136319620D01*
X121655000Y-130770000D02*
G75*
G03X121655000Y-130770000I-6125000J0D01*
G01*
X118130960Y-136319620D02*
X112929040Y-136319620D01*
X96520000Y-110490000D02*
X95250000Y-110490000D01*
X95250000Y-110490000D02*
X95250000Y-102870000D01*
X95250000Y-102870000D02*
X96520000Y-102870000D01*
X107950000Y-111760000D02*
X111760000Y-111760000D01*
X111760000Y-111760000D02*
X111760000Y-109220000D01*
X111760000Y-109220000D02*
X107950000Y-109220000D01*
X107950000Y-109220000D02*
X107950000Y-111760000D01*
X101600000Y-110490000D02*
X101600000Y-102870000D01*
X101600000Y-102870000D02*
X96520000Y-102870000D01*
X101600000Y-110490000D02*
X96520000Y-110490000D01*
X102870000Y-111760000D02*
X105410000Y-111760000D01*
X105410000Y-111760000D02*
X105410000Y-109220000D01*
X105410000Y-109220000D02*
X102870000Y-109220000D01*
X102870000Y-109220000D02*
X102870000Y-111760000D01*
X129540000Y-104140000D02*
X129540000Y-109220000D01*
X129540000Y-109220000D02*
X127000000Y-109220000D01*
X127000000Y-109220000D02*
X127000000Y-104140000D01*
X127000000Y-104140000D02*
X129540000Y-104140000D01*
X123190000Y-111760000D02*
X123190000Y-101600000D01*
X114300000Y-101600000D02*
X114300000Y-111760000D01*
X123190000Y-101600000D02*
X114300000Y-101600000D01*
X123190000Y-111760000D02*
X114300000Y-111760000D01*
X96520000Y-97790000D02*
X132080000Y-97790000D01*
X132080000Y-97790000D02*
X132080000Y-115570000D01*
X132080000Y-115570000D02*
X96520000Y-115570000D01*
X96520000Y-115570000D02*
X96520000Y-97790000D01*
X166015000Y-118080000D02*
X164465000Y-118080000D01*
X166015000Y-119380000D02*
X166015000Y-118080000D01*
X164592000Y-123571000D02*
X164592000Y-129413000D01*
X164592000Y-129413000D02*
X164338000Y-129413000D01*
X164338000Y-129413000D02*
X164338000Y-123571000D01*
X164338000Y-123571000D02*
X164465000Y-123571000D01*
X164465000Y-123571000D02*
X164465000Y-129413000D01*
X164719000Y-120904000D02*
X164719000Y-120523000D01*
X164211000Y-120904000D02*
X164211000Y-120523000D01*
X162179000Y-120904000D02*
X162179000Y-120523000D01*
X161671000Y-120904000D02*
X161671000Y-120523000D01*
X159639000Y-120904000D02*
X159639000Y-120523000D01*
X159131000Y-120904000D02*
X159131000Y-120523000D01*
X151511000Y-120904000D02*
X151511000Y-120523000D01*
X152019000Y-120904000D02*
X152019000Y-120523000D01*
X154051000Y-120904000D02*
X154051000Y-120523000D01*
X154559000Y-120904000D02*
X154559000Y-120523000D01*
X156591000Y-120904000D02*
X156591000Y-120523000D01*
X157099000Y-120904000D02*
X157099000Y-120523000D01*
X165735000Y-120904000D02*
X165735000Y-123444000D01*
X163195000Y-120904000D02*
X163195000Y-123444000D01*
X163195000Y-120904000D02*
X160655000Y-120904000D01*
X160655000Y-120904000D02*
X160655000Y-123444000D01*
X162179000Y-123444000D02*
X162179000Y-129540000D01*
X162179000Y-129540000D02*
X161671000Y-129540000D01*
X161671000Y-129540000D02*
X161671000Y-123444000D01*
X160655000Y-123444000D02*
X163195000Y-123444000D01*
X163195000Y-123444000D02*
X165735000Y-123444000D01*
X164211000Y-129540000D02*
X164211000Y-123444000D01*
X164719000Y-129540000D02*
X164211000Y-129540000D01*
X164719000Y-123444000D02*
X164719000Y-129540000D01*
X163195000Y-120904000D02*
X163195000Y-123444000D01*
X165735000Y-120904000D02*
X163195000Y-120904000D01*
X155575000Y-120904000D02*
X155575000Y-123444000D01*
X155575000Y-120904000D02*
X153035000Y-120904000D01*
X153035000Y-120904000D02*
X153035000Y-123444000D01*
X154559000Y-123444000D02*
X154559000Y-129540000D01*
X154559000Y-129540000D02*
X154051000Y-129540000D01*
X154051000Y-129540000D02*
X154051000Y-123444000D01*
X153035000Y-123444000D02*
X155575000Y-123444000D01*
X150495000Y-123444000D02*
X153035000Y-123444000D01*
X151511000Y-129540000D02*
X151511000Y-123444000D01*
X152019000Y-129540000D02*
X151511000Y-129540000D01*
X152019000Y-123444000D02*
X152019000Y-129540000D01*
X150495000Y-120904000D02*
X150495000Y-123444000D01*
X153035000Y-120904000D02*
X150495000Y-120904000D01*
X153035000Y-120904000D02*
X153035000Y-123444000D01*
X158115000Y-120904000D02*
X158115000Y-123444000D01*
X158115000Y-120904000D02*
X155575000Y-120904000D01*
X155575000Y-120904000D02*
X155575000Y-123444000D01*
X157099000Y-123444000D02*
X157099000Y-129540000D01*
X157099000Y-129540000D02*
X156591000Y-129540000D01*
X156591000Y-129540000D02*
X156591000Y-123444000D01*
X155575000Y-123444000D02*
X158115000Y-123444000D01*
X158115000Y-123444000D02*
X160655000Y-123444000D01*
X159131000Y-129540000D02*
X159131000Y-123444000D01*
X159639000Y-129540000D02*
X159131000Y-129540000D01*
X159639000Y-123444000D02*
X159639000Y-129540000D01*
X158115000Y-120904000D02*
X158115000Y-123444000D01*
X160655000Y-120904000D02*
X158115000Y-120904000D01*
X160655000Y-120904000D02*
X160655000Y-123444000D01*
X147621667Y-114387381D02*
X147621667Y-115101667D01*
X147574047Y-115244524D01*
X147478809Y-115339762D01*
X147335952Y-115387381D01*
X147240714Y-115387381D01*
X148050238Y-114482619D02*
X148097857Y-114435000D01*
X148193095Y-114387381D01*
X148431191Y-114387381D01*
X148526429Y-114435000D01*
X148574048Y-114482619D01*
X148621667Y-114577857D01*
X148621667Y-114673095D01*
X148574048Y-114815952D01*
X148002619Y-115387381D01*
X148621667Y-115387381D01*
X143176667Y-99147381D02*
X143176667Y-99861667D01*
X143129047Y-100004524D01*
X143033809Y-100099762D01*
X142890952Y-100147381D01*
X142795714Y-100147381D01*
X144176667Y-100147381D02*
X143605238Y-100147381D01*
X143890952Y-100147381D02*
X143890952Y-99147381D01*
X143795714Y-99290238D01*
X143700476Y-99385476D01*
X143605238Y-99433095D01*
X141501905Y-114752381D02*
X141501905Y-113752381D01*
X141740000Y-113752381D01*
X141882858Y-113800000D01*
X141978096Y-113895238D01*
X142025715Y-113990476D01*
X142073334Y-114180952D01*
X142073334Y-114323810D01*
X142025715Y-114514286D01*
X141978096Y-114609524D01*
X141882858Y-114704762D01*
X141740000Y-114752381D01*
X141501905Y-114752381D01*
X143025715Y-114752381D02*
X142454286Y-114752381D01*
X142740000Y-114752381D02*
X142740000Y-113752381D01*
X142644762Y-113895238D01*
X142549524Y-113990476D01*
X142454286Y-114038095D01*
X133723095Y-116022381D02*
X133723095Y-115022381D01*
X134294524Y-116022381D02*
X133865952Y-115450952D01*
X134294524Y-115022381D02*
X133723095Y-115593810D01*
X140866905Y-102052381D02*
X140866905Y-101052381D01*
X141105000Y-101052381D01*
X141247858Y-101100000D01*
X141343096Y-101195238D01*
X141390715Y-101290476D01*
X141438334Y-101480952D01*
X141438334Y-101623810D01*
X141390715Y-101814286D01*
X141343096Y-101909524D01*
X141247858Y-102004762D01*
X141105000Y-102052381D01*
X140866905Y-102052381D01*
X141819286Y-101147619D02*
X141866905Y-101100000D01*
X141962143Y-101052381D01*
X142200239Y-101052381D01*
X142295477Y-101100000D01*
X142343096Y-101147619D01*
X142390715Y-101242857D01*
X142390715Y-101338095D01*
X142343096Y-101480952D01*
X141771667Y-102052381D01*
X142390715Y-102052381D01*
X133723095Y-103322381D02*
X133723095Y-102322381D01*
X134294524Y-103322381D02*
X133865952Y-102750952D01*
X134294524Y-102322381D02*
X133723095Y-102893810D01*
X128103334Y-119242381D02*
X127770000Y-118766190D01*
X127531905Y-119242381D02*
X127531905Y-118242381D01*
X127912858Y-118242381D01*
X128008096Y-118290000D01*
X128055715Y-118337619D01*
X128103334Y-118432857D01*
X128103334Y-118575714D01*
X128055715Y-118670952D01*
X128008096Y-118718571D01*
X127912858Y-118766190D01*
X127531905Y-118766190D01*
X129055715Y-119242381D02*
X128484286Y-119242381D01*
X128770000Y-119242381D02*
X128770000Y-118242381D01*
X128674762Y-118385238D01*
X128579524Y-118480476D01*
X128484286Y-118528095D01*
X115403334Y-119242381D02*
X115070000Y-118766190D01*
X114831905Y-119242381D02*
X114831905Y-118242381D01*
X115212858Y-118242381D01*
X115308096Y-118290000D01*
X115355715Y-118337619D01*
X115403334Y-118432857D01*
X115403334Y-118575714D01*
X115355715Y-118670952D01*
X115308096Y-118718571D01*
X115212858Y-118766190D01*
X114831905Y-118766190D01*
X115784286Y-118337619D02*
X115831905Y-118290000D01*
X115927143Y-118242381D01*
X116165239Y-118242381D01*
X116260477Y-118290000D01*
X116308096Y-118337619D01*
X116355715Y-118432857D01*
X116355715Y-118528095D01*
X116308096Y-118670952D01*
X115736667Y-119242381D01*
X116355715Y-119242381D01*
X138898334Y-119197381D02*
X138565000Y-118721190D01*
X138326905Y-119197381D02*
X138326905Y-118197381D01*
X138707858Y-118197381D01*
X138803096Y-118245000D01*
X138850715Y-118292619D01*
X138898334Y-118387857D01*
X138898334Y-118530714D01*
X138850715Y-118625952D01*
X138803096Y-118673571D01*
X138707858Y-118721190D01*
X138326905Y-118721190D01*
X139231667Y-118197381D02*
X139850715Y-118197381D01*
X139517381Y-118578333D01*
X139660239Y-118578333D01*
X139755477Y-118625952D01*
X139803096Y-118673571D01*
X139850715Y-118768810D01*
X139850715Y-119006905D01*
X139803096Y-119102143D01*
X139755477Y-119149762D01*
X139660239Y-119197381D01*
X139374524Y-119197381D01*
X139279286Y-119149762D01*
X139231667Y-119102143D01*
X138263334Y-105862381D02*
X137930000Y-105386190D01*
X137691905Y-105862381D02*
X137691905Y-104862381D01*
X138072858Y-104862381D01*
X138168096Y-104910000D01*
X138215715Y-104957619D01*
X138263334Y-105052857D01*
X138263334Y-105195714D01*
X138215715Y-105290952D01*
X138168096Y-105338571D01*
X138072858Y-105386190D01*
X137691905Y-105386190D01*
X139120477Y-105195714D02*
X139120477Y-105862381D01*
X138882381Y-104814762D02*
X138644286Y-105529048D01*
X139263334Y-105529048D01*
X96822142Y-139517381D02*
X96345951Y-139517381D01*
X96345951Y-138517381D01*
X97155475Y-139517381D02*
X97155475Y-138850714D01*
X97155475Y-138517381D02*
X97107856Y-138565000D01*
X97155475Y-138612619D01*
X97203094Y-138565000D01*
X97155475Y-138517381D01*
X97155475Y-138612619D01*
X98060237Y-138850714D02*
X98060237Y-139660238D01*
X98012618Y-139755476D01*
X97964999Y-139803095D01*
X97869760Y-139850714D01*
X97726903Y-139850714D01*
X97631665Y-139803095D01*
X98060237Y-139469762D02*
X97964999Y-139517381D01*
X97774522Y-139517381D01*
X97679284Y-139469762D01*
X97631665Y-139422143D01*
X97584046Y-139326905D01*
X97584046Y-139041190D01*
X97631665Y-138945952D01*
X97679284Y-138898333D01*
X97774522Y-138850714D01*
X97964999Y-138850714D01*
X98060237Y-138898333D01*
X98536427Y-139517381D02*
X98536427Y-138517381D01*
X98964999Y-139517381D02*
X98964999Y-138993571D01*
X98917380Y-138898333D01*
X98822142Y-138850714D01*
X98679284Y-138850714D01*
X98584046Y-138898333D01*
X98536427Y-138945952D01*
X99298332Y-138850714D02*
X99679284Y-138850714D01*
X99441189Y-138517381D02*
X99441189Y-139374524D01*
X99488808Y-139469762D01*
X99584046Y-139517381D01*
X99679284Y-139517381D01*
X101203095Y-139469762D02*
X101107857Y-139517381D01*
X100917380Y-139517381D01*
X100822142Y-139469762D01*
X100774523Y-139422143D01*
X100726904Y-139326905D01*
X100726904Y-139041190D01*
X100774523Y-138945952D01*
X100822142Y-138898333D01*
X100917380Y-138850714D01*
X101107857Y-138850714D01*
X101203095Y-138898333D01*
X101774523Y-139517381D02*
X101679285Y-139469762D01*
X101631666Y-139422143D01*
X101584047Y-139326905D01*
X101584047Y-139041190D01*
X101631666Y-138945952D01*
X101679285Y-138898333D01*
X101774523Y-138850714D01*
X101917381Y-138850714D01*
X102012619Y-138898333D01*
X102060238Y-138945952D01*
X102107857Y-139041190D01*
X102107857Y-139326905D01*
X102060238Y-139422143D01*
X102012619Y-139469762D01*
X101917381Y-139517381D01*
X101774523Y-139517381D01*
X102536428Y-138850714D02*
X102536428Y-139517381D01*
X102536428Y-138945952D02*
X102584047Y-138898333D01*
X102679285Y-138850714D01*
X102822143Y-138850714D01*
X102917381Y-138898333D01*
X102965000Y-138993571D01*
X102965000Y-139517381D01*
X103298333Y-138850714D02*
X103679285Y-138850714D01*
X103441190Y-138517381D02*
X103441190Y-139374524D01*
X103488809Y-139469762D01*
X103584047Y-139517381D01*
X103679285Y-139517381D01*
X104012619Y-139517381D02*
X104012619Y-138850714D01*
X104012619Y-139041190D02*
X104060238Y-138945952D01*
X104107857Y-138898333D01*
X104203095Y-138850714D01*
X104298334Y-138850714D01*
X104774524Y-139517381D02*
X104679286Y-139469762D01*
X104631667Y-139422143D01*
X104584048Y-139326905D01*
X104584048Y-139041190D01*
X104631667Y-138945952D01*
X104679286Y-138898333D01*
X104774524Y-138850714D01*
X104917382Y-138850714D01*
X105012620Y-138898333D01*
X105060239Y-138945952D01*
X105107858Y-139041190D01*
X105107858Y-139326905D01*
X105060239Y-139422143D01*
X105012620Y-139469762D01*
X104917382Y-139517381D01*
X104774524Y-139517381D01*
X105679286Y-139517381D02*
X105584048Y-139469762D01*
X105536429Y-139374524D01*
X105536429Y-138517381D01*
X128929048Y-139517381D02*
X128929048Y-138517381D01*
X129167143Y-138517381D01*
X129310001Y-138565000D01*
X129405239Y-138660238D01*
X129452858Y-138755476D01*
X129500477Y-138945952D01*
X129500477Y-139088810D01*
X129452858Y-139279286D01*
X129405239Y-139374524D01*
X129310001Y-139469762D01*
X129167143Y-139517381D01*
X128929048Y-139517381D01*
X130119524Y-138517381D02*
X130310001Y-138517381D01*
X130405239Y-138565000D01*
X130500477Y-138660238D01*
X130548096Y-138850714D01*
X130548096Y-139184048D01*
X130500477Y-139374524D01*
X130405239Y-139469762D01*
X130310001Y-139517381D01*
X130119524Y-139517381D01*
X130024286Y-139469762D01*
X129929048Y-139374524D01*
X129881429Y-139184048D01*
X129881429Y-138850714D01*
X129929048Y-138660238D01*
X130024286Y-138565000D01*
X130119524Y-138517381D01*
X130881429Y-138517381D02*
X131119524Y-139517381D01*
X131310001Y-138803095D01*
X131500477Y-139517381D01*
X131738572Y-138517381D01*
X132119524Y-139517381D02*
X132119524Y-138517381D01*
X132690953Y-139517381D01*
X132690953Y-138517381D01*
X114784286Y-138517381D02*
X114784286Y-139326905D01*
X114831905Y-139422143D01*
X114879524Y-139469762D01*
X114974762Y-139517381D01*
X115165239Y-139517381D01*
X115260477Y-139469762D01*
X115308096Y-139422143D01*
X115355715Y-139326905D01*
X115355715Y-138517381D01*
X115831905Y-139517381D02*
X115831905Y-138517381D01*
X116212858Y-138517381D01*
X116308096Y-138565000D01*
X116355715Y-138612619D01*
X116403334Y-138707857D01*
X116403334Y-138850714D01*
X116355715Y-138945952D01*
X116308096Y-138993571D01*
X116212858Y-139041190D01*
X115831905Y-139041190D01*
X97028095Y-95972381D02*
X97028095Y-96781905D01*
X97075714Y-96877143D01*
X97123333Y-96924762D01*
X97218571Y-96972381D01*
X97409048Y-96972381D01*
X97504286Y-96924762D01*
X97551905Y-96877143D01*
X97599524Y-96781905D01*
X97599524Y-95972381D01*
X98599524Y-96972381D02*
X98028095Y-96972381D01*
X98313809Y-96972381D02*
X98313809Y-95972381D01*
X98218571Y-96115238D01*
X98123333Y-96210476D01*
X98028095Y-96258095D01*
X103592381Y-105616190D02*
X103592381Y-105044761D01*
X104592381Y-105330476D02*
X103592381Y-105330476D01*
X103592381Y-104806666D02*
X103592381Y-104187618D01*
X103973333Y-104520952D01*
X103973333Y-104378094D01*
X104020952Y-104282856D01*
X104068571Y-104235237D01*
X104163810Y-104187618D01*
X104401905Y-104187618D01*
X104497143Y-104235237D01*
X104544762Y-104282856D01*
X104592381Y-104378094D01*
X104592381Y-104663809D01*
X104544762Y-104759047D01*
X104497143Y-104806666D01*
X104497143Y-103759047D02*
X104544762Y-103711428D01*
X104592381Y-103759047D01*
X104544762Y-103806666D01*
X104497143Y-103759047D01*
X104592381Y-103759047D01*
X103687619Y-103330476D02*
X103640000Y-103282857D01*
X103592381Y-103187619D01*
X103592381Y-102949523D01*
X103640000Y-102854285D01*
X103687619Y-102806666D01*
X103782857Y-102759047D01*
X103878095Y-102759047D01*
X104020952Y-102806666D01*
X104592381Y-103378095D01*
X104592381Y-102759047D01*
X107402381Y-105616190D02*
X107402381Y-105044761D01*
X108402381Y-105330476D02*
X107402381Y-105330476D01*
X107402381Y-104806666D02*
X107402381Y-104187618D01*
X107783333Y-104520952D01*
X107783333Y-104378094D01*
X107830952Y-104282856D01*
X107878571Y-104235237D01*
X107973810Y-104187618D01*
X108211905Y-104187618D01*
X108307143Y-104235237D01*
X108354762Y-104282856D01*
X108402381Y-104378094D01*
X108402381Y-104663809D01*
X108354762Y-104759047D01*
X108307143Y-104806666D01*
X108307143Y-103759047D02*
X108354762Y-103711428D01*
X108402381Y-103759047D01*
X108354762Y-103806666D01*
X108307143Y-103759047D01*
X108402381Y-103759047D01*
X108402381Y-102759047D02*
X108402381Y-103330476D01*
X108402381Y-103044762D02*
X107402381Y-103044762D01*
X107545238Y-103140000D01*
X107640476Y-103235238D01*
X107688095Y-103330476D01*
X148256667Y-119467381D02*
X148256667Y-120181667D01*
X148209047Y-120324524D01*
X148113809Y-120419762D01*
X147970952Y-120467381D01*
X147875714Y-120467381D01*
X148637619Y-119467381D02*
X149256667Y-119467381D01*
X148923333Y-119848333D01*
X149066191Y-119848333D01*
X149161429Y-119895952D01*
X149209048Y-119943571D01*
X149256667Y-120038810D01*
X149256667Y-120276905D01*
X149209048Y-120372143D01*
X149161429Y-120419762D01*
X149066191Y-120467381D01*
X148780476Y-120467381D01*
X148685238Y-120419762D01*
X148637619Y-120372143D01*
M02*
