M48
;DRILL file {KiCad 4.0.7} date 2018 April 09, Monday 11:43:49
;FORMAT={-:-/ absolute / inch / decimal}
FMAT,2
INCH,TZ
T1C0.016
T2C0.020
T3C0.028
T4C0.039
T5C0.039
T6C0.040
T7C0.043
%
G90
G05
M72
T1
X4.6Y-4.65
X4.65Y-4.6
X5.4Y-4.325
X5.45Y-4.625
X5.55Y-4.525
X5.7Y-4.225
X6.075Y-4.025
X6.175Y-4.025
T2
X4.1Y-4.2
X4.25Y-4.2
T3
X4.4Y-4.75
X4.7Y-4.75
X4.9Y-4.75
X5.2Y-4.75
X5.3Y-4.225
X5.325Y-4.75
X5.6Y-4.225
X5.625Y-4.75
T4
X3.875Y-4.9
X3.9734Y-4.9
X4.0719Y-4.9
T5
X5.35Y-3.975
X5.35Y-4.475
X5.45Y-3.975
X5.45Y-4.475
T6
X5.775Y-3.9
X5.875Y-3.9
X5.975Y-3.9
X5.975Y-4.5
X5.975Y-4.7
X6.075Y-3.9
X6.075Y-4.5
X6.075Y-4.7
X6.175Y-3.9
X6.175Y-4.5
X6.175Y-4.7
X6.275Y-3.9
X6.275Y-4.5
X6.275Y-4.7
X6.375Y-3.9
X6.375Y-4.5
X6.375Y-4.7
X6.475Y-3.9
X6.475Y-4.5
X6.475Y-4.7
X6.575Y-3.9
X6.675Y-3.9
T7
X3.85Y-3.9
X3.85Y-4.5
X3.95Y-3.9
X3.95Y-4.
X3.95Y-4.5
X4.05Y-3.9
X4.05Y-4.5
X4.15Y-3.9
X4.15Y-4.
X4.15Y-4.5
X4.25Y-3.9
X4.25Y-4.
X4.25Y-4.5
X4.35Y-3.9
X4.35Y-4.
X4.35Y-4.5
X4.45Y-3.9
X4.45Y-4.1
X4.45Y-4.2
X4.45Y-4.5
X4.45Y-5.05
X4.45Y-5.2469
X4.55Y-3.9
X4.55Y-4.1
X4.55Y-4.2
X4.55Y-4.5
X4.6469Y-5.05
X4.6469Y-5.2469
X4.65Y-3.9
X4.65Y-4.1
X4.65Y-4.2
X4.65Y-4.5
X4.75Y-3.9
X4.75Y-4.1
X4.75Y-4.2
X4.75Y-4.5
X4.85Y-3.9
X4.85Y-4.1
X4.85Y-4.2
X4.85Y-4.5
X4.95Y-3.9
X4.95Y-4.1
X4.95Y-4.2
X4.95Y-4.5
X5.05Y-3.9
X5.05Y-4.1
X5.05Y-4.2
X5.05Y-4.5
X5.05Y-5.05
X5.05Y-5.2469
X5.15Y-3.9
X5.15Y-4.
X5.15Y-4.1
X5.15Y-4.2
X5.15Y-4.3
X5.15Y-4.4
X5.15Y-4.5
X5.2469Y-5.05
X5.2469Y-5.2469
T0
M30
