G04 #@! TF.FileFunction,Copper,L2,Bot,Signal*
%FSLAX46Y46*%
G04 Gerber Fmt 4.6, Leading zero omitted, Abs format (unit mm)*
G04 Created by KiCad (PCBNEW 4.0.7) date 2018 April 09, Monday 11:43:40*
%MOMM*%
%LPD*%
G01*
G04 APERTURE LIST*
%ADD10C,0.100000*%
%ADD11R,1.727200X2.032000*%
%ADD12O,1.727200X2.032000*%
%ADD13R,1.900000X2.000000*%
%ADD14C,1.900000*%
%ADD15C,1.400000*%
%ADD16O,1.400000X1.400000*%
%ADD17C,1.800000*%
%ADD18C,4.000000*%
%ADD19C,2.000000*%
%ADD20C,1.600000*%
%ADD21R,1.600000X1.600000*%
%ADD22C,0.600000*%
%ADD23C,0.250000*%
G04 APERTURE END LIST*
D10*
D11*
X151765000Y-114300000D03*
D12*
X154305000Y-114300000D03*
X156845000Y-114300000D03*
X159385000Y-114300000D03*
X161925000Y-114300000D03*
X164465000Y-114300000D03*
D11*
X146685000Y-99060000D03*
D12*
X149225000Y-99060000D03*
X151765000Y-99060000D03*
X154305000Y-99060000D03*
X156845000Y-99060000D03*
X159385000Y-99060000D03*
X161925000Y-99060000D03*
X164465000Y-99060000D03*
X167005000Y-99060000D03*
X169545000Y-99060000D03*
D13*
X135890000Y-113665000D03*
D14*
X138430000Y-113665000D03*
D13*
X135890000Y-100965000D03*
D14*
X138430000Y-100965000D03*
D15*
X124460000Y-120650000D03*
D16*
X132080000Y-120650000D03*
D15*
X111760000Y-120650000D03*
D16*
X119380000Y-120650000D03*
D15*
X142875000Y-120650000D03*
D16*
X135255000Y-120650000D03*
D15*
X142240000Y-107315000D03*
D16*
X134620000Y-107315000D03*
D17*
X103425000Y-124460000D03*
X100925000Y-124460000D03*
X98425000Y-124460000D03*
D18*
X105325000Y-131460000D03*
X96525000Y-131460000D03*
D19*
X128270000Y-128270000D03*
X133270000Y-128270000D03*
X133270000Y-133270000D03*
X128270000Y-133270000D03*
X113030000Y-128270000D03*
X118030000Y-128270000D03*
X118030000Y-133270000D03*
X113030000Y-133270000D03*
D20*
X130810000Y-106680000D03*
X130810000Y-104140000D03*
X130810000Y-101600000D03*
X130810000Y-99060000D03*
X130810000Y-109220000D03*
X130810000Y-111760000D03*
X130810000Y-114300000D03*
X128270000Y-99060000D03*
X125730000Y-99060000D03*
X123190000Y-99060000D03*
X120650000Y-99060000D03*
X118110000Y-99060000D03*
X115570000Y-99060000D03*
X113030000Y-99060000D03*
X110490000Y-99060000D03*
X107950000Y-99060000D03*
X105410000Y-99060000D03*
X102870000Y-99060000D03*
X100330000Y-99060000D03*
X97790000Y-99060000D03*
X100330000Y-101600000D03*
X105410000Y-101600000D03*
X107950000Y-101600000D03*
X110490000Y-101600000D03*
X128270000Y-114300000D03*
X125730000Y-114300000D03*
X123190000Y-114300000D03*
X120650000Y-114300000D03*
X118110000Y-114300000D03*
X115570000Y-114300000D03*
X113030000Y-114300000D03*
X110490000Y-114300000D03*
X107950000Y-114300000D03*
X105410000Y-114300000D03*
X102870000Y-114300000D03*
X100330000Y-114300000D03*
D21*
X97790000Y-114300000D03*
D20*
X113030000Y-106680000D03*
X115570000Y-106680000D03*
X118110000Y-106680000D03*
X120650000Y-106680000D03*
X123190000Y-106680000D03*
X125730000Y-106680000D03*
X128270000Y-106680000D03*
X128270000Y-104140000D03*
X125730000Y-104140000D03*
X123190000Y-104140000D03*
X120650000Y-104140000D03*
X118110000Y-104140000D03*
X115570000Y-104140000D03*
X113030000Y-104140000D03*
D14*
X107950000Y-106680000D03*
X104140000Y-106680000D03*
D11*
X164465000Y-119380000D03*
D12*
X161925000Y-119380000D03*
X159385000Y-119380000D03*
X156845000Y-119380000D03*
X154305000Y-119380000D03*
X151765000Y-119380000D03*
D22*
X137160000Y-109855000D03*
X144780000Y-107315000D03*
X154305000Y-102235000D03*
X140970000Y-114935000D03*
X138430000Y-117475000D03*
X118110000Y-116840000D03*
X156845000Y-102235000D03*
X116840000Y-118110000D03*
D23*
X138430000Y-113665000D02*
X138430000Y-114300000D01*
X138430000Y-114300000D02*
X137795000Y-114935000D01*
X137795000Y-114935000D02*
X137795000Y-115570000D01*
X137795000Y-115570000D02*
X133985000Y-115570000D01*
X133985000Y-115570000D02*
X132715000Y-114300000D01*
X132715000Y-114300000D02*
X130810000Y-114300000D01*
X107950000Y-114300000D02*
X114300000Y-107950000D01*
X114300000Y-107950000D02*
X132080000Y-107950000D01*
X132080000Y-107950000D02*
X132080000Y-107315000D01*
X132080000Y-107315000D02*
X136525000Y-102870000D01*
X136525000Y-102870000D02*
X137795000Y-102870000D01*
X137795000Y-102870000D02*
X137795000Y-101600000D01*
X137795000Y-101600000D02*
X138430000Y-100965000D01*
X115570000Y-104140000D02*
X119380000Y-100330000D01*
X119380000Y-100330000D02*
X132080000Y-100330000D01*
X132080000Y-100330000D02*
X133350000Y-99060000D01*
X133350000Y-99060000D02*
X146685000Y-99060000D01*
X111760000Y-120650000D02*
X107950000Y-124460000D01*
X107950000Y-124460000D02*
X103425000Y-124460000D01*
X146685000Y-99060000D02*
X147955000Y-97790000D01*
X147955000Y-97790000D02*
X147955000Y-97155000D01*
X147955000Y-97155000D02*
X160655000Y-97155000D01*
X160655000Y-97155000D02*
X160655000Y-97790000D01*
X160655000Y-97790000D02*
X161925000Y-99060000D01*
X111760000Y-120650000D02*
X113030000Y-119380000D01*
X113030000Y-119380000D02*
X120650000Y-119380000D01*
X120650000Y-119380000D02*
X121920000Y-120650000D01*
X121920000Y-120650000D02*
X124460000Y-120650000D01*
X161925000Y-99060000D02*
X163195000Y-97790000D01*
X163195000Y-97790000D02*
X163195000Y-97155000D01*
X163195000Y-97155000D02*
X165735000Y-97155000D01*
X165735000Y-97155000D02*
X165735000Y-97790000D01*
X165735000Y-97790000D02*
X167005000Y-99060000D01*
X110490000Y-114300000D02*
X111760000Y-115570000D01*
X111760000Y-115570000D02*
X116840000Y-115570000D01*
X116840000Y-115570000D02*
X116840000Y-113030000D01*
X116840000Y-113030000D02*
X132080000Y-113030000D01*
X132080000Y-113030000D02*
X135255000Y-109855000D01*
X135255000Y-109855000D02*
X137160000Y-109855000D01*
X113030000Y-114300000D02*
X116840000Y-110490000D01*
X116840000Y-110490000D02*
X132080000Y-110490000D01*
X132080000Y-110490000D02*
X133985000Y-108585000D01*
X133985000Y-108585000D02*
X143510000Y-108585000D01*
X143510000Y-108585000D02*
X144780000Y-107315000D01*
X154305000Y-102235000D02*
X141605000Y-114935000D01*
X141605000Y-114935000D02*
X140970000Y-114935000D01*
X138430000Y-117475000D02*
X137795000Y-116840000D01*
X137795000Y-116840000D02*
X118110000Y-116840000D01*
X156845000Y-102235000D02*
X142875000Y-116205000D01*
X142875000Y-116205000D02*
X132715000Y-116205000D01*
X132715000Y-116205000D02*
X132080000Y-115570000D01*
X132080000Y-115570000D02*
X119380000Y-115570000D01*
X119380000Y-115570000D02*
X118110000Y-114300000D01*
X142240000Y-107315000D02*
X148590000Y-100965000D01*
X148590000Y-100965000D02*
X163195000Y-100965000D01*
X163195000Y-100965000D02*
X163195000Y-100330000D01*
X163195000Y-100330000D02*
X164465000Y-99060000D01*
X128270000Y-128270000D02*
X134620000Y-121920000D01*
X134620000Y-121920000D02*
X136525000Y-121920000D01*
X136525000Y-121920000D02*
X137795000Y-120650000D01*
X137795000Y-120650000D02*
X142875000Y-120650000D01*
X113030000Y-128270000D02*
X110490000Y-125730000D01*
X110490000Y-125730000D02*
X99695000Y-125730000D01*
X99695000Y-125730000D02*
X98425000Y-124460000D01*
X113030000Y-128270000D02*
X114935000Y-126365000D01*
X114935000Y-126365000D02*
X118745000Y-126365000D01*
X118745000Y-126365000D02*
X120650000Y-128270000D01*
X120650000Y-128270000D02*
X128270000Y-128270000D01*
X100925000Y-124460000D02*
X100965000Y-124460000D01*
X100965000Y-124460000D02*
X107315000Y-118110000D01*
X107315000Y-118110000D02*
X116840000Y-118110000D01*
X107950000Y-106680000D02*
X104140000Y-106680000D01*
M02*
