G04 #@! TF.FileFunction,Legend,Bot*
%FSLAX46Y46*%
G04 Gerber Fmt 4.6, Leading zero omitted, Abs format (unit mm)*
G04 Created by KiCad (PCBNEW 4.0.7) date 2018 April 09, Monday 11:43:40*
%MOMM*%
%LPD*%
G01*
G04 APERTURE LIST*
%ADD10C,0.100000*%
%ADD11C,0.300000*%
G04 APERTURE END LIST*
D10*
D11*
X167882144Y-126398571D02*
X167882144Y-124898571D01*
X167167858Y-126398571D02*
X167167858Y-124898571D01*
X166310715Y-126398571D01*
X166310715Y-124898571D01*
X165810715Y-124898571D02*
X164953572Y-124898571D01*
X165382143Y-126398571D02*
X165382143Y-124898571D01*
X164453572Y-125612857D02*
X163953572Y-125612857D01*
X163739286Y-126398571D02*
X164453572Y-126398571D01*
X164453572Y-124898571D01*
X163739286Y-124898571D01*
X162239286Y-126398571D02*
X162739286Y-125684286D01*
X163096429Y-126398571D02*
X163096429Y-124898571D01*
X162525001Y-124898571D01*
X162382143Y-124970000D01*
X162310715Y-125041429D01*
X162239286Y-125184286D01*
X162239286Y-125398571D01*
X162310715Y-125541429D01*
X162382143Y-125612857D01*
X162525001Y-125684286D01*
X163096429Y-125684286D01*
X161667858Y-126327143D02*
X161453572Y-126398571D01*
X161096429Y-126398571D01*
X160953572Y-126327143D01*
X160882143Y-126255714D01*
X160810715Y-126112857D01*
X160810715Y-125970000D01*
X160882143Y-125827143D01*
X160953572Y-125755714D01*
X161096429Y-125684286D01*
X161382143Y-125612857D01*
X161525001Y-125541429D01*
X161596429Y-125470000D01*
X161667858Y-125327143D01*
X161667858Y-125184286D01*
X161596429Y-125041429D01*
X161525001Y-124970000D01*
X161382143Y-124898571D01*
X161025001Y-124898571D01*
X160810715Y-124970000D01*
X160167858Y-126398571D02*
X160167858Y-124898571D01*
X159596430Y-124898571D01*
X159453572Y-124970000D01*
X159382144Y-125041429D01*
X159310715Y-125184286D01*
X159310715Y-125398571D01*
X159382144Y-125541429D01*
X159453572Y-125612857D01*
X159596430Y-125684286D01*
X160167858Y-125684286D01*
X158667858Y-125612857D02*
X158167858Y-125612857D01*
X157953572Y-126398571D02*
X158667858Y-126398571D01*
X158667858Y-124898571D01*
X157953572Y-124898571D01*
X156453572Y-126255714D02*
X156525001Y-126327143D01*
X156739287Y-126398571D01*
X156882144Y-126398571D01*
X157096429Y-126327143D01*
X157239287Y-126184286D01*
X157310715Y-126041429D01*
X157382144Y-125755714D01*
X157382144Y-125541429D01*
X157310715Y-125255714D01*
X157239287Y-125112857D01*
X157096429Y-124970000D01*
X156882144Y-124898571D01*
X156739287Y-124898571D01*
X156525001Y-124970000D01*
X156453572Y-125041429D01*
X155810715Y-126398571D02*
X155810715Y-124898571D01*
X154596429Y-125612857D02*
X155096429Y-125612857D01*
X155096429Y-126398571D02*
X155096429Y-124898571D01*
X154382143Y-124898571D01*
X153810715Y-126398571D02*
X153810715Y-124898571D01*
X152239286Y-126255714D02*
X152310715Y-126327143D01*
X152525001Y-126398571D01*
X152667858Y-126398571D01*
X152882143Y-126327143D01*
X153025001Y-126184286D01*
X153096429Y-126041429D01*
X153167858Y-125755714D01*
X153167858Y-125541429D01*
X153096429Y-125255714D01*
X153025001Y-125112857D01*
X152882143Y-124970000D01*
X152667858Y-124898571D01*
X152525001Y-124898571D01*
X152310715Y-124970000D01*
X152239286Y-125041429D01*
X151667858Y-126327143D02*
X151453572Y-126398571D01*
X151096429Y-126398571D01*
X150953572Y-126327143D01*
X150882143Y-126255714D01*
X150810715Y-126112857D01*
X150810715Y-125970000D01*
X150882143Y-125827143D01*
X150953572Y-125755714D01*
X151096429Y-125684286D01*
X151382143Y-125612857D01*
X151525001Y-125541429D01*
X151596429Y-125470000D01*
X151667858Y-125327143D01*
X151667858Y-125184286D01*
X151596429Y-125041429D01*
X151525001Y-124970000D01*
X151382143Y-124898571D01*
X151025001Y-124898571D01*
X150810715Y-124970000D01*
X148167858Y-126255714D02*
X148239287Y-126327143D01*
X148453573Y-126398571D01*
X148596430Y-126398571D01*
X148810715Y-126327143D01*
X148953573Y-126184286D01*
X149025001Y-126041429D01*
X149096430Y-125755714D01*
X149096430Y-125541429D01*
X149025001Y-125255714D01*
X148953573Y-125112857D01*
X148810715Y-124970000D01*
X148596430Y-124898571D01*
X148453573Y-124898571D01*
X148239287Y-124970000D01*
X148167858Y-125041429D01*
X147239287Y-124898571D02*
X146953573Y-124898571D01*
X146810715Y-124970000D01*
X146667858Y-125112857D01*
X146596430Y-125398571D01*
X146596430Y-125898571D01*
X146667858Y-126184286D01*
X146810715Y-126327143D01*
X146953573Y-126398571D01*
X147239287Y-126398571D01*
X147382144Y-126327143D01*
X147525001Y-126184286D01*
X147596430Y-125898571D01*
X147596430Y-125398571D01*
X147525001Y-125112857D01*
X147382144Y-124970000D01*
X147239287Y-124898571D01*
X145239286Y-126398571D02*
X145953572Y-126398571D01*
X145953572Y-124898571D01*
X144025000Y-126398571D02*
X144739286Y-126398571D01*
X144739286Y-124898571D01*
X143525000Y-125612857D02*
X143025000Y-125612857D01*
X142810714Y-126398571D02*
X143525000Y-126398571D01*
X143525000Y-124898571D01*
X142810714Y-124898571D01*
X141310714Y-126255714D02*
X141382143Y-126327143D01*
X141596429Y-126398571D01*
X141739286Y-126398571D01*
X141953571Y-126327143D01*
X142096429Y-126184286D01*
X142167857Y-126041429D01*
X142239286Y-125755714D01*
X142239286Y-125541429D01*
X142167857Y-125255714D01*
X142096429Y-125112857D01*
X141953571Y-124970000D01*
X141739286Y-124898571D01*
X141596429Y-124898571D01*
X141382143Y-124970000D01*
X141310714Y-125041429D01*
X140882143Y-124898571D02*
X140025000Y-124898571D01*
X140453571Y-126398571D02*
X140453571Y-124898571D01*
X139525000Y-126398571D02*
X139525000Y-124898571D01*
X139025000Y-124898571D02*
X138525000Y-126398571D01*
X138025000Y-124898571D01*
X137525000Y-125612857D02*
X137025000Y-125612857D01*
X136810714Y-126398571D02*
X137525000Y-126398571D01*
X137525000Y-124898571D01*
X136810714Y-124898571D01*
X164167857Y-128948571D02*
X164167857Y-127448571D01*
X163667857Y-128520000D01*
X163167857Y-127448571D01*
X163167857Y-128948571D01*
X161882143Y-128877143D02*
X162025000Y-128948571D01*
X162310714Y-128948571D01*
X162453571Y-128877143D01*
X162525000Y-128734286D01*
X162525000Y-128162857D01*
X162453571Y-128020000D01*
X162310714Y-127948571D01*
X162025000Y-127948571D01*
X161882143Y-128020000D01*
X161810714Y-128162857D01*
X161810714Y-128305714D01*
X162525000Y-128448571D01*
X162025000Y-127377143D02*
X162239285Y-127591429D01*
X161310714Y-128948571D02*
X160525000Y-127948571D01*
X161310714Y-127948571D02*
X160525000Y-128948571D01*
X159953571Y-128948571D02*
X159953571Y-127948571D01*
X159953571Y-127448571D02*
X160025000Y-127520000D01*
X159953571Y-127591429D01*
X159882143Y-127520000D01*
X159953571Y-127448571D01*
X159953571Y-127591429D01*
X158596428Y-128877143D02*
X158739285Y-128948571D01*
X159024999Y-128948571D01*
X159167857Y-128877143D01*
X159239285Y-128805714D01*
X159310714Y-128662857D01*
X159310714Y-128234286D01*
X159239285Y-128091429D01*
X159167857Y-128020000D01*
X159024999Y-127948571D01*
X158739285Y-127948571D01*
X158596428Y-128020000D01*
X157739285Y-128948571D02*
X157882143Y-128877143D01*
X157953571Y-128805714D01*
X158025000Y-128662857D01*
X158025000Y-128234286D01*
X157953571Y-128091429D01*
X157882143Y-128020000D01*
X157739285Y-127948571D01*
X157525000Y-127948571D01*
X157382143Y-128020000D01*
X157310714Y-128091429D01*
X157239285Y-128234286D01*
X157239285Y-128662857D01*
X157310714Y-128805714D01*
X157382143Y-128877143D01*
X157525000Y-128948571D01*
X157739285Y-128948571D01*
X155453571Y-128377143D02*
X154310714Y-128377143D01*
X154882143Y-128948571D02*
X154882143Y-127805714D01*
X151596428Y-128805714D02*
X151667857Y-128877143D01*
X151882143Y-128948571D01*
X152025000Y-128948571D01*
X152239285Y-128877143D01*
X152382143Y-128734286D01*
X152453571Y-128591429D01*
X152525000Y-128305714D01*
X152525000Y-128091429D01*
X152453571Y-127805714D01*
X152382143Y-127662857D01*
X152239285Y-127520000D01*
X152025000Y-127448571D01*
X151882143Y-127448571D01*
X151667857Y-127520000D01*
X151596428Y-127591429D01*
X150953571Y-128948571D02*
X150953571Y-127448571D01*
X150310714Y-128948571D02*
X150310714Y-128162857D01*
X150382143Y-128020000D01*
X150525000Y-127948571D01*
X150739285Y-127948571D01*
X150882143Y-128020000D01*
X150953571Y-128091429D01*
X149596428Y-128948571D02*
X149596428Y-127948571D01*
X149596428Y-127448571D02*
X149667857Y-127520000D01*
X149596428Y-127591429D01*
X149525000Y-127520000D01*
X149596428Y-127448571D01*
X149596428Y-127591429D01*
X148667856Y-128948571D02*
X148810714Y-128877143D01*
X148882142Y-128734286D01*
X148882142Y-127448571D01*
X147525000Y-128877143D02*
X147667857Y-128948571D01*
X147953571Y-128948571D01*
X148096428Y-128877143D01*
X148167857Y-128734286D01*
X148167857Y-128162857D01*
X148096428Y-128020000D01*
X147953571Y-127948571D01*
X147667857Y-127948571D01*
X147525000Y-128020000D01*
X147453571Y-128162857D01*
X147453571Y-128305714D01*
X148167857Y-128448571D01*
X145667857Y-128377143D02*
X144525000Y-128377143D01*
X145096429Y-128948571D02*
X145096429Y-127805714D01*
X142167857Y-128162857D02*
X141953571Y-128234286D01*
X141882143Y-128305714D01*
X141810714Y-128448571D01*
X141810714Y-128662857D01*
X141882143Y-128805714D01*
X141953571Y-128877143D01*
X142096429Y-128948571D01*
X142667857Y-128948571D01*
X142667857Y-127448571D01*
X142167857Y-127448571D01*
X142025000Y-127520000D01*
X141953571Y-127591429D01*
X141882143Y-127734286D01*
X141882143Y-127877143D01*
X141953571Y-128020000D01*
X142025000Y-128091429D01*
X142167857Y-128162857D01*
X142667857Y-128162857D01*
X141167857Y-128948571D02*
X141167857Y-127948571D01*
X141167857Y-128234286D02*
X141096429Y-128091429D01*
X141025000Y-128020000D01*
X140882143Y-127948571D01*
X140739286Y-127948571D01*
X139596429Y-128948571D02*
X139596429Y-128162857D01*
X139667858Y-128020000D01*
X139810715Y-127948571D01*
X140096429Y-127948571D01*
X140239286Y-128020000D01*
X139596429Y-128877143D02*
X139739286Y-128948571D01*
X140096429Y-128948571D01*
X140239286Y-128877143D01*
X140310715Y-128734286D01*
X140310715Y-128591429D01*
X140239286Y-128448571D01*
X140096429Y-128377143D01*
X139739286Y-128377143D01*
X139596429Y-128305714D01*
X138953572Y-128877143D02*
X138810715Y-128948571D01*
X138525000Y-128948571D01*
X138382143Y-128877143D01*
X138310715Y-128734286D01*
X138310715Y-128662857D01*
X138382143Y-128520000D01*
X138525000Y-128448571D01*
X138739286Y-128448571D01*
X138882143Y-128377143D01*
X138953572Y-128234286D01*
X138953572Y-128162857D01*
X138882143Y-128020000D01*
X138739286Y-127948571D01*
X138525000Y-127948571D01*
X138382143Y-128020000D01*
X137667857Y-128948571D02*
X137667857Y-127948571D01*
X137667857Y-127448571D02*
X137739286Y-127520000D01*
X137667857Y-127591429D01*
X137596429Y-127520000D01*
X137667857Y-127448571D01*
X137667857Y-127591429D01*
X136739285Y-128948571D02*
X136882143Y-128877143D01*
X136953571Y-128734286D01*
X136953571Y-127448571D01*
X141953570Y-130141429D02*
X141882141Y-130070000D01*
X141739284Y-129998571D01*
X141382141Y-129998571D01*
X141239284Y-130070000D01*
X141167855Y-130141429D01*
X141096427Y-130284286D01*
X141096427Y-130427143D01*
X141167855Y-130641429D01*
X142024998Y-131498571D01*
X141096427Y-131498571D01*
X140167856Y-129998571D02*
X140024999Y-129998571D01*
X139882142Y-130070000D01*
X139810713Y-130141429D01*
X139739284Y-130284286D01*
X139667856Y-130570000D01*
X139667856Y-130927143D01*
X139739284Y-131212857D01*
X139810713Y-131355714D01*
X139882142Y-131427143D01*
X140024999Y-131498571D01*
X140167856Y-131498571D01*
X140310713Y-131427143D01*
X140382142Y-131355714D01*
X140453570Y-131212857D01*
X140524999Y-130927143D01*
X140524999Y-130570000D01*
X140453570Y-130284286D01*
X140382142Y-130141429D01*
X140310713Y-130070000D01*
X140167856Y-129998571D01*
X138239285Y-131498571D02*
X139096428Y-131498571D01*
X138667856Y-131498571D02*
X138667856Y-129998571D01*
X138810713Y-130212857D01*
X138953571Y-130355714D01*
X139096428Y-130427143D01*
X137382142Y-130641429D02*
X137525000Y-130570000D01*
X137596428Y-130498571D01*
X137667857Y-130355714D01*
X137667857Y-130284286D01*
X137596428Y-130141429D01*
X137525000Y-130070000D01*
X137382142Y-129998571D01*
X137096428Y-129998571D01*
X136953571Y-130070000D01*
X136882142Y-130141429D01*
X136810714Y-130284286D01*
X136810714Y-130355714D01*
X136882142Y-130498571D01*
X136953571Y-130570000D01*
X137096428Y-130641429D01*
X137382142Y-130641429D01*
X137525000Y-130712857D01*
X137596428Y-130784286D01*
X137667857Y-130927143D01*
X137667857Y-131212857D01*
X137596428Y-131355714D01*
X137525000Y-131427143D01*
X137382142Y-131498571D01*
X137096428Y-131498571D01*
X136953571Y-131427143D01*
X136882142Y-131355714D01*
X136810714Y-131212857D01*
X136810714Y-130927143D01*
X136882142Y-130784286D01*
X136953571Y-130712857D01*
X137096428Y-130641429D01*
M02*
